<svg viewBox="0 0 100 100" xmlns="http://www.w3.org/2000/svg">
  <defs>
    <linearGradient id="reportesGradient" x1="0%" y1="0%" x2="0%" y2="100%">
      <stop offset="0%" style="stop-color:#FF5B61;stop-opacity:1" />
      <stop offset="100%" style="stop-color:#D93E45;stop-opacity:1" />
    </linearGradient>
  </defs>
  <rect x="10" y="20" width="80" height="65" rx="5" ry="5" fill="white" stroke="#F5F0EB" stroke-width="2"/>
  <rect x="20" y="30" width="60" height="8" rx="2" ry="2" fill="#F5F0EB"/>
  <rect x="20" y="45" width="40" height="8" rx="2" ry="2" fill="#F5F0EB"/>
  <rect x="20" y="60" width="50" height="8" rx="2" ry="2" fill="#F5F0EB"/>
  <rect x="20" y="75" width="30" height="8" rx="2" ry="2" fill="#F5F0EB"/>
  <path d="M70 75 L80 65 L90 75 L80 85 Z" fill="url(#reportesGradient)"/>
  <rect x="65" y="10" width="25" height="30" rx="3" ry="3" fill="url(#reportesGradient)"/>
  <rect x="70" y="15" width="15" height="3" rx="1" ry="1" fill="white"/>
  <rect x="70" y="22" width="15" height="3" rx="1" ry="1" fill="white"/>
  <rect x="70" y="29" width="15" height="3" rx="1" ry="1" fill="white"/>
  <circle cx="20" cy="15" r="10" fill="#F5F0EB"/>
  <path d="M15 15 L25 15 M20 10 L20 20" stroke="#FF5B61" stroke-width="2"/>
</svg>